<?xml version="1.0" standalone="no"?>
<!DOCTYPE svg PUBLIC "-//W3C//DTD SVG 1.1//EN" "http://www.w3.org/Graphics/SVG/1.1/DTD/svg11.dtd" >
<svg xmlns="http://www.w3.org/2000/svg" xmlns:xlink="http://www.w3.org/1999/xlink" version="1.1">
<metadata></metadata>
<defs>
<font id="post_no_bills_jaffnabold" horiz-adv-x="940" >
<font-face units-per-em="2048" ascent="1638" descent="-410" />
<missing-glyph horiz-adv-x="480" />
<glyph unicode="&#xfb01;" horiz-adv-x="988" d="M76 822h126v-822h196v822h238v-822h196v1008h-434v96q0 88 80 100h8h52l44 188h-94q-168 -2 -250 -158q-36 -70 -36 -130v-94h-126v-188zM612 1232q0 -72 64 -104q28 -14 56 -14q72 0 106 64q14 26 14 54q0 72 -64 106q-28 14 -56 14q-72 0 -106 -64q-14 -28 -14 -56z " />
<glyph unicode="&#xfb02;" horiz-adv-x="868" d="M76 822h126v-822h196v822h130v188l-130 -2v96q0 50 36 80q24 18 56 20h150v-1204h202v1392h-354q-168 -2 -250 -158q-36 -70 -36 -130v-94h-126v-188z" />
<glyph horiz-adv-x="0" />
<glyph unicode="&#xd;" horiz-adv-x="682" />
<glyph unicode=" "  horiz-adv-x="480" />
<glyph unicode="&#x09;" horiz-adv-x="480" />
<glyph unicode="&#xa0;" horiz-adv-x="480" />
<glyph unicode="!" horiz-adv-x="424" d="M90 88q0 76 68 110q26 14 54 14q76 0 110 -68q12 -28 12 -56q0 -76 -70 -108q-26 -12 -52 -12q-78 0 -110 68q-12 26 -12 52zM110 332v1068h206v-1068h-206z" />
<glyph unicode="&#x22;" horiz-adv-x="680" d="M84 930v542h204v-542h-204zM394 930v542h204v-542h-204z" />
<glyph unicode="#" horiz-adv-x="1504" d="M62 376l40 194h298l46 262h-316l34 194h316l58 338h196l-60 -340h258l58 340h196l-60 -340h300l-32 -194l-302 2l-46 -264h310l-30 -194l-314 2l-58 -332h-194l58 332h-258l-58 -332h-196l60 332h-304zM594 570l258 -2l46 264h-258z" />
<glyph unicode="$" horiz-adv-x="986" d="M52 316l202 72q16 -130 144 -180l22 -8v-294h-118v112q-138 48 -214 186q-34 62 -36 112zM68 1020q0 212 184 322q26 16 50 26v132h118v-310q-62 -10 -108 -72q-30 -44 -30 -94q2 -100 138 -154v-240q-70 22 -106 38q-168 74 -216 190q-30 70 -30 162zM524 -94v294 q76 4 136 72q50 60 50 138q0 114 -156 174q-14 4 -30 10v234q92 -26 154 -56q174 -86 226 -204q30 -70 30 -154q0 -176 -138 -304q-70 -64 -154 -94v-110h-118zM524 1190v310h118v-128q134 -52 210 -196q20 -42 26 -70l-208 -68q-10 60 -47 98t-67 46z" />
<glyph unicode="%" horiz-adv-x="1064" d="M68 1156q0 98 86 146q40 22 84 22q96 0 144 -82q24 -42 24 -86q0 -94 -80 -144q-42 -24 -88 -24q-96 0 -146 82q-24 40 -24 86zM250 -40l350 1478h202l-348 -1478h-204zM658 238q0 98 84 148q40 22 84 22q98 0 146 -86q22 -40 22 -84q0 -96 -82 -144q-40 -24 -86 -24 q-96 0 -146 84q-22 40 -22 84z" />
<glyph unicode="&#x26;" horiz-adv-x="1304" d="M66 426q0 -200 154 -326q122 -100 278 -100q162 2 284 106l-144 168q-64 -56 -140 -56q-110 0 -174 88q-36 52 -36 114q2 90 78 156l-148 170q-150 -128 -152 -320zM210 1064q0 170 136 274q78 60 178 74v-210q-68 -10 -96 -78q-12 -28 -12 -58q0 -62 66 -136l4 -4 l372 -424q64 72 76 176v12h226q-16 -202 -146 -366l224 -256l-226 -60l-688 784q-100 120 -112 222q-2 24 -2 50zM634 1202v210q166 -22 256 -164q38 -62 52 -130l-200 -52q-6 78 -66 118q-20 12 -42 18z" />
<glyph unicode="'" horiz-adv-x="370" d="M84 930v542h204v-542h-204z" />
<glyph unicode="(" horiz-adv-x="440" d="M80 378q0 -184 84 -282q72 -84 224 -152v138q-100 62 -126 184q-12 58 -12 130v646q0 172 96 246q18 14 42 28l-2 136q-168 -68 -230 -150q-76 -100 -76 -282v-642z" />
<glyph unicode=")" horiz-adv-x="444" d="M52 -58v138q90 58 120 150q22 70 22 178v634q0 178 -114 258q-14 10 -28 18l2 136q198 -76 264 -202q46 -92 46 -232v-638q0 -204 -116 -316q-74 -72 -196 -124z" />
<glyph unicode="*" horiz-adv-x="666" d="M46 1142l186 124l-186 124l72 100l150 -96v176h124v-182l158 102l72 -100l-188 -126l186 -128l-72 -100l-156 112v-192h-124v190l-152 -104z" />
<glyph unicode="+" horiz-adv-x="840" d="M44 486v202h272v308h202v-308h276v-202h-276v-312h-202v312h-272z" />
<glyph unicode="," horiz-adv-x="466" d="M96 -46l74 304h202l-74 -304h-202z" />
<glyph unicode="-" horiz-adv-x="820" d="M94 486v202h632v-202h-632z" />
<glyph unicode="." horiz-adv-x="390" d="M66 120q0 80 70 116q28 14 58 14q80 0 116 -72q14 -28 14 -58q0 -80 -72 -116q-28 -14 -58 -14q-76 0 -112 68q-16 30 -16 62z" />
<glyph unicode="/" horiz-adv-x="740" d="M94 -40l350 1478h202l-348 -1478h-204z" />
<glyph unicode="0" horiz-adv-x="1002" d="M66 702q0 -588 280 -686q46 -16 98 -16v212q-120 24 -152 294q-10 80 -10 172v66q2 330 112 418q24 20 50 24v212q-232 -2 -324 -284q-54 -164 -54 -412zM558 0q236 2 326 294q52 164 52 408q0 574 -272 676q-50 20 -106 20v-212q112 -18 150 -254q14 -88 14 -188v-66 q-2 -428 -164 -466v-212z" />
<glyph unicode="1" horiz-adv-x="486" d="M66 1092v204l130 104h224v-1400h-224v1092h-130z" />
<glyph unicode="2" horiz-adv-x="998" d="M66 1042q6 154 130 264q102 90 232 94v-206q-58 0 -110 -52q-50 -52 -58 -138zM108 0v218h808v-218h-808zM108 316q0 176 228 328q28 20 80 52q48 30 66 42q16 10 48 32q136 90 170 148q26 40 26 82q0 142 -118 182q-36 12 -76 12v206q268 0 362 -206q38 -86 38 -192 q0 -162 -120 -274q-48 -44 -120 -92q-30 -20 -94 -58q-158 -92 -204 -154q-38 -52 -40 -108h-246z" />
<glyph unicode="3" horiz-adv-x="1008" d="M66 356l194 38q12 -144 132 -182q22 -8 36 -8v-206q-168 4 -280 142q-78 100 -82 216zM66 1042q6 154 130 264q102 90 232 94v-206q-152 -26 -168 -184v-6zM458 596v206q256 0 274 168q2 18 2 34q0 142 -132 180q-32 8 -64 10v206q188 0 304 -124q100 -106 100 -268 q-2 -212 -142 -310q140 -100 142 -308q0 -230 -186 -336q-100 -56 -218 -56v206q144 6 184 114q12 34 12 74q0 158 -160 194q-52 10 -116 10z" />
<glyph unicode="4" horiz-adv-x="988" d="M46 286v206l438 750v-398l-208 -352h208v-206h-438zM592 0v1402h222v-910h108v-206h-108v-286h-222z" />
<glyph unicode="5" horiz-adv-x="1040" d="M66 312l192 46q24 -102 130 -140q32 -10 60 -12v-208q-164 0 -286 126q-82 86 -96 188zM88 708l58 692h714v-206l-522 -2l-30 -334q74 36 144 36v-196q-120 -10 -178 -100zM556 0v200q118 16 178 116q36 60 36 132q0 152 -124 222q-46 24 -90 28v196q248 -4 358 -206 q60 -108 60 -242q0 -240 -176 -366q-108 -76 -242 -80z" />
<glyph unicode="6" horiz-adv-x="1026" d="M66 710q0 -510 202 -652q84 -58 204 -60v206q-116 14 -156 140q-14 40 -14 80q0 128 88 190q38 24 82 30v206q-128 -2 -192 -78q0 366 172 416l20 4v206q-320 -8 -390 -452q-16 -108 -16 -236zM580 1192q88 0 140 -78q14 -20 22 -42l170 116q-66 134 -208 188 q-62 22 -124 22v-206zM582 -2q172 0 284 140q96 120 96 284q0 234 -146 352q-98 76 -234 76v-206q106 -16 150 -118q20 -48 20 -102q0 -112 -78 -180q-42 -32 -92 -40v-206z" />
<glyph unicode="7" horiz-adv-x="892" d="M66 1192v208h798v-208h-798zM330 0q12 448 198 898q44 102 90 190h228q-232 -442 -282 -942q-8 -76 -10 -146h-224z" />
<glyph unicode="8" horiz-adv-x="1000" d="M66 396q0 210 134 298q4 2 6 4q-116 74 -136 246q-2 26 -2 52q0 184 142 308q108 94 234 94v-204q-114 -12 -154 -126q-14 -38 -14 -78q0 -122 94 -170q32 -16 72 -20v-204q-116 -12 -156 -110q-14 -36 -14 -78q0 -136 106 -188q30 -14 64 -18v-204q-154 0 -270 126 q-106 118 -106 272zM556 -2v204q118 14 158 124q14 38 14 82q0 126 -110 172q-30 12 -60 16v204q120 10 156 124q10 32 10 66q0 116 -82 174q-40 24 -86 30v204q150 0 266 -126q110 -120 110 -276q0 -188 -120 -284q-10 -8 -18 -14q134 -100 140 -302q0 -184 -140 -306 q-110 -92 -238 -92z" />
<glyph unicode="9" horiz-adv-x="1026" d="M66 974q0 -242 154 -356q94 -70 228 -70v208q-122 16 -160 136q-12 40 -12 82q0 110 78 176q42 34 94 42v208q-172 0 -284 -140q-98 -122 -98 -286zM110 216q88 -174 264 -210q38 -6 74 -6v206q-86 2 -146 84q-14 20 -22 40zM550 0q346 -2 400 492q10 86 10 190 q0 520 -206 660q-86 58 -204 58v-208q114 -14 156 -132q16 -42 16 -84q0 -154 -112 -204q-30 -12 -60 -16v-208q92 0 188 68q4 2 6 4q0 -340 -144 -402q-24 -10 -50 -12v-206z" />
<glyph unicode=":" horiz-adv-x="444" d="M100 210q0 76 68 110q26 14 54 14q76 0 110 -68q12 -28 12 -56q0 -74 -66 -106q-28 -14 -56 -14q-78 0 -110 68q-12 26 -12 52zM100 790q0 76 68 110q26 14 54 14q76 0 110 -68q12 -28 12 -56q0 -74 -66 -106q-28 -14 -56 -14q-78 0 -110 68q-12 26 -12 52z" />
<glyph unicode=";" horiz-adv-x="528" d="M100 -46l74 304h202l-74 -304h-202zM186 692q0 78 70 110q26 12 52 12q74 0 106 -66q14 -28 14 -56q0 -78 -68 -110q-26 -12 -52 -12q-78 0 -110 70q-12 26 -12 52z" />
<glyph unicode="&#x3c;" horiz-adv-x="840" d="M66 526v110l708 364v-208l-428 -208l428 -222v-204z" />
<glyph unicode="=" horiz-adv-x="836" d="M100 312v204h636v-204h-636zM100 650v204h636v-204h-636z" />
<glyph unicode="&#x3e;" horiz-adv-x="840" d="M66 158v204l428 222l-428 208v208l708 -364v-110z" />
<glyph unicode="?" horiz-adv-x="932" d="M66 1222q116 146 276 176q48 8 100 8q250 0 360 -188q60 -102 64 -236q0 -110 -37 -195t-91 -127t-107 -69t-91 -33l-36 -6v-276h-206v456q242 4 316 90q48 60 48 162q0 128 -110 188q-56 30 -122 30q-144 -2 -232 -116zM278 78q0 78 70 110q26 12 52 12q78 0 110 -70 q12 -26 12 -52q0 -78 -70 -110q-26 -12 -52 -12q-78 0 -110 70q-12 26 -12 52z" />
<glyph unicode="@" horiz-adv-x="1586" d="M46 618q0 320 218 544q228 232 582 246h40q258 0 444 -148q206 -166 208 -436q0 -360 -240 -502q-110 -64 -236 -64q-86 0 -140 66q-12 18 -18 32q-66 -92 -210 -94q-124 0 -204 122q-56 90 -56 202q0 234 176 360q100 72 206 72q116 -2 184 -76l4 -4l16 50h142l-96 -372 q-14 -50 -16 -84q-4 -56 38 -72q10 -4 22 -4q88 0 156 86q80 102 80 282q0 196 -178 316q-130 86 -278 86q-266 0 -456 -172q-192 -176 -194 -432q0 -318 218 -482q152 -116 364 -116q276 2 512 166l82 -150q-158 -138 -420 -180q-82 -14 -160 -14q-374 0 -592 230 q-198 210 -198 542z" />
<glyph unicode="A" horiz-adv-x="998" d="M62 0l264 1174h30l92 -424l-166 -750h-220zM412 1400h220l322 -1400h-222l-44 200h-256l46 218h150z" />
<glyph unicode="B" horiz-adv-x="990" d="M66 0h222v1400h-222v-1400zM392 0h112q246 0 358 178q62 98 62 220q-2 198 -140 304q112 82 132 246q4 28 4 56q0 190 -132 304q-112 92 -286 92h-110v-196h82q146 0 204 -120q20 -46 20 -94q0 -134 -110 -176q-42 -16 -92 -16h-104v-194h104q150 0 192 -122 q12 -34 12 -70q0 -124 -104 -182q-60 -34 -142 -34h-62v-196z" />
<glyph unicode="C" horiz-adv-x="1000" d="M78 362q0 -116 86 -226q116 -144 310 -146v222q-118 0 -162 104q-12 28 -12 46v674q0 54 50 104q52 46 124 48v222q-226 0 -340 -192q-56 -94 -56 -182v-674zM576 -10q158 0 274 124q100 110 100 250l-216 52q0 -22 -2 -28q0 -42 -10 -72q-16 -40 -52 -66t-66 -32l-28 -6 v-222zM576 1188l52 -16q68 -34 94 -98q10 -30 10 -68v-30l218 56q0 154 -128 274q-114 104 -246 104v-222z" />
<glyph unicode="D" horiz-adv-x="944" d="M82 0v1400h224v-1400h-224zM410 0v222q230 0 234 168v4v612q0 120 -134 158q-46 14 -100 14v222q256 0 382 -168q74 -100 74 -226v-612q0 -278 -262 -364q-90 -30 -194 -30z" />
<glyph unicode="E" horiz-adv-x="888" d="M82 0v1400h728v-220h-504v-372h316v-224h-316v-362h504v-222h-728z" />
<glyph unicode="F" horiz-adv-x="870" d="M82 2v1398h728v-220h-504v-372h316v-224h-316v-582h-224z" />
<glyph unicode="G" horiz-adv-x="1018" d="M78 384q0 -224 198 -336q102 -58 196 -58v222q-50 0 -108 44q-62 52 -64 128v632q0 82 68 136q46 34 104 36v222q-218 0 -334 -188q-52 -88 -60 -174v-664zM574 -10q128 2 254 124q118 120 120 238v354h-374v-206h148v-120q0 -88 -92 -146q-34 -22 -56 -22v-222z M574 1188q74 -2 122 -70q28 -44 32 -102v-64l220 80q0 154 -128 274q-114 104 -246 104v-222z" />
<glyph unicode="H" horiz-adv-x="978" d="M80 0v1400h224v-586h132v-218h-132v-596h-224zM542 596v218h132v586h224v-1400h-224v596h-132z" />
<glyph unicode="I" horiz-adv-x="392" d="M84 0v1400h224v-1400h-224z" />
<glyph unicode="J" horiz-adv-x="976" d="M32 386v98h224v-94q2 -116 106 -164q28 -12 48 -12v-224q-110 0 -222 84q-154 120 -156 312zM512 -10v224q48 0 106 44q64 52 66 128v1014h222v-1014q0 -222 -198 -336q-104 -60 -196 -60z" />
<glyph unicode="K" horiz-adv-x="978" d="M82 0v1400h224v-1400h-224zM390 682l320 718h226l-320 -718l328 -682h-224z" />
<glyph unicode="L" horiz-adv-x="868" d="M82 0v1400h224v-1180h528v-220h-752z" />
<glyph unicode="M" horiz-adv-x="1392" d="M84 0v948h18l206 -494v-454h-224zM84 1256v144h178l424 -1030l276 624h20v-508l-216 -486h-160zM1084 0v1400h224v-1400h-224z" />
<glyph unicode="N" horiz-adv-x="1058" d="M84 0v1044h16l208 -334v-710h-224zM84 1256v144h186l704 -1130v-270h-108zM750 816v584h224v-918h-16z" />
<glyph unicode="O" horiz-adv-x="1050" d="M78 390v658q0 106 90 216q120 144 304 146v-222q-104 -2 -156 -112q-16 -36 -16 -60v-626q0 -108 112 -160q34 -16 58 -16v-224q-114 0 -228 82q-162 120 -164 318zM580 -10v224q52 0 108 48q60 54 62 128v626q0 60 -52 116q-50 54 -118 56v222q202 0 324 -174 q70 -100 70 -188v-658q0 -222 -198 -340q-104 -60 -196 -60z" />
<glyph unicode="P" horiz-adv-x="960" d="M84 0v1400h224v-1400h-224zM410 632v218h134q146 0 158 142v24q-14 158 -158 166h-134v218h152q364 -6 366 -380q0 -290 -184 -362q-76 -26 -182 -26h-152z" />
<glyph unicode="Q" horiz-adv-x="1054" d="M78 390v658q0 106 88 214q122 146 308 148v-222q-108 -2 -158 -110q-16 -36 -16 -62v-626q0 -120 128 -166q28 -10 44 -10v-224q-118 0 -234 84q-158 120 -160 316zM576 -10v224q42 0 100 40q72 52 74 136v626q0 62 -54 118q-50 52 -120 54v222q206 0 328 -174 q70 -100 70 -188v-658q-2 -198 -186 -322l110 -162l-176 -120z" />
<glyph unicode="R" horiz-adv-x="1012" d="M84 0v1400h224v-1400h-224zM410 590v200h112q174 0 192 166q2 18 2 34q0 168 -152 198q-28 4 -58 4h-96v208h122q266 -6 358 -198q38 -80 38 -184q-2 -222 -136 -322q104 -60 132 -214q4 -26 6 -48l34 -434h-208l-30 356q-16 168 -90 212q-44 22 -110 22h-116z" />
<glyph unicode="S" horiz-adv-x="974" d="M46 316l202 72q12 -130 142 -180l24 -8v-206q-172 0 -292 148q-74 94 -76 174zM62 1020q0 218 188 328q88 50 164 52v-210q-62 -10 -108 -72q-30 -44 -30 -94q0 -104 150 -166q36 -14 112 -38q96 -30 134 -48q174 -86 226 -204q30 -70 30 -154q0 -176 -136 -306 q-122 -114 -274 -114v206q76 4 136 72q50 60 50 138q0 122 -170 184q-36 14 -112 36q-84 24 -114 38q-168 74 -216 190q-30 70 -30 162zM518 1190v210q172 0 288 -148q62 -80 66 -146l-206 -68q-8 60 -45 98t-69 46z" />
<glyph unicode="T" horiz-adv-x="932" d="M32 1182v218h866v-218h-320v-1182h-224v1182h-322z" />
<glyph unicode="U" horiz-adv-x="1032" d="M68 386v1014h224v-1014q2 -112 122 -160q30 -12 50 -12v-224q-114 0 -230 80q-164 118 -166 316zM568 -10v224q52 0 108 44q62 52 64 128v1014h222v-1014q0 -226 -200 -338q-102 -58 -194 -58z" />
<glyph unicode="V" horiz-adv-x="946" d="M18 1400h226l338 -1156l-82 -244h-76zM518 826l184 574h228q-18 -60 -86 -272q-164 -514 -204 -650h-20z" />
<glyph unicode="W" horiz-adv-x="1584" d="M20 1400l406 -1400h76l82 250l-336 1150h-228zM516 836l102 -348h20q74 256 148 516l282 -1004h76l82 246l-326 1154h-226zM1170 834l102 -346h20l272 912h-228z" />
<glyph unicode="X" horiz-adv-x="902" d="M38 0l302 722l-278 678h218l170 -390l172 390h216l-276 -678l300 -722h-228l-184 426l-182 -426h-230z" />
<glyph unicode="Y" horiz-adv-x="922" d="M34 1400h232l292 -894v-506h-230v504zM512 1010l146 390h230l-256 -750h-16z" />
<glyph unicode="Z" horiz-adv-x="864" d="M66 0v220l486 960h-486v220h732v-214l-486 -960h486v-226h-732z" />
<glyph unicode="[" horiz-adv-x="470" d="M100 -72v1550h322v-178h-110l-6 -1194h116v-178h-322z" />
<glyph unicode="\" horiz-adv-x="718" d="M82 1432h204l350 -1478h-206z" />
<glyph unicode="]" horiz-adv-x="460" d="M48 -72v178h116l-6 1194h-110v178h322v-1550h-322z" />
<glyph unicode="^" horiz-adv-x="966" d="M114 920l298 592h142l298 -592h-200l-172 344l-168 -344h-198z" />
<glyph unicode="_" horiz-adv-x="1032" d="M66 -236h900v-174h-900v174z" />
<glyph unicode="`" horiz-adv-x="582" d="M82 1514h204l74 -304h-146z" />
<glyph unicode="a" d="M58 258q0 -112 108 -190q94 -68 224 -68v198q-148 2 -150 104v42q2 40 24 56q16 12 188 58q120 32 168 58v-198q0 -96 -90 -116q-18 -4 -38 -4v-198q132 2 212 68q70 -68 176 -68v200q-52 4 -54 64v538q0 120 -96 214t-240 94v-196q90 0 120 -74q10 -24 10 -50v-42 q0 -52 -220 -120q-208 -64 -236 -80q-104 -62 -106 -192v-98zM74 832l184 -70q0 114 88 144q22 8 44 8v196q-138 0 -238 -100q-78 -80 -78 -178z" />
<glyph unicode="b" horiz-adv-x="910" d="M82 0v1422h220v-1422h-220zM402 0v206h120q72 0 108 66q12 20 12 34v496q0 42 -48 76q-34 22 -70 24h-122v206h122q170 0 270 -146q54 -78 56 -152v-508q0 -92 -78 -186q-100 -114 -250 -116h-120z" />
<glyph unicode="c" horiz-adv-x="898" d="M76 302q0 -104 82 -194q100 -108 264 -108v204q-104 0 -130 70q-6 14 -6 28v502q0 54 58 84q34 18 78 18v202q-196 0 -296 -156q-48 -74 -50 -144v-506zM512 -2h10q136 0 240 106q90 92 90 204l-196 74v-54q-10 -124 -144 -126v-204zM512 904q96 0 116 -90q4 -16 4 -32 v-56l196 74q0 148 -120 242q-88 66 -196 66v-204z" />
<glyph unicode="d" horiz-adv-x="902" d="M60 302v506q2 102 90 194q98 102 234 104h116v-208h-116q-72 0 -106 -66q-10 -20 -10 -34v-492q0 -44 52 -78q32 -22 68 -22h112v-206h-112q-182 0 -280 158q-48 78 -48 144zM600 0v1422h220v-1422h-220z" />
<glyph unicode="e" horiz-adv-x="950" d="M76 302v508q4 98 90 190q106 106 256 108v-200q-78 0 -118 -70q-14 -24 -14 -44v-120h380v118q0 84 -92 110q-26 8 -52 8v198q142 0 252 -98q92 -88 94 -198v-344h-582v-166q0 -52 58 -86q36 -20 78 -20v-196q-186 0 -294 150q-56 82 -56 152zM526 0v198q116 0 160 98 q6 14 10 26l178 -64q-36 -136 -162 -210q-86 -48 -186 -48z" />
<glyph unicode="f" horiz-adv-x="596" d="M38 806v208h136v98q0 100 74 194q92 114 236 116h102l-48 -206h-54q-86 -18 -96 -104v-98h140v-208h-140v-806h-214v806h-136z" />
<glyph unicode="g" horiz-adv-x="898" d="M46 -374l50 196h386q94 4 128 78q8 16 8 28v120q-80 -36 -132 -38v198q88 0 122 68q10 20 10 38v500q0 54 -62 88q-34 18 -70 18v198q70 0 132 -38v38h206v-1190q0 -86 -78 -180q-102 -120 -250 -122h-450zM66 310v512q2 94 84 186q100 108 250 110v-198q-86 0 -122 -72 q-10 -18 -10 -32v-504q0 -52 58 -84q34 -18 74 -18v-200q-186 2 -286 158q-48 76 -48 142z" />
<glyph unicode="h" horiz-adv-x="930" d="M82 -10v1432h200v-382q68 42 150 42v-198q-82 0 -132 -72q-16 -24 -16 -44v-778h-202zM528 884v198q190 0 286 -136q50 -74 50 -158v-798h-202v778q0 60 -54 94q-36 22 -80 22z" />
<glyph unicode="i" horiz-adv-x="428" d="M96 1262q0 74 66 106q26 12 52 12q76 0 108 -66q12 -26 12 -52q0 -72 -68 -104q-26 -12 -52 -12q-72 0 -106 64q-12 24 -12 52zM110 0v1066h214v-1066h-214z" />
<glyph unicode="j" horiz-adv-x="444" d="M-84 -388l48 204h48q74 4 106 74q8 16 8 30v1146h214v-1146q0 -94 -80 -190q-98 -116 -246 -118h-98zM114 1262q0 74 66 106q26 12 52 12q72 0 106 -66q12 -26 12 -52q0 -72 -66 -104q-24 -12 -52 -12q-72 0 -106 64q-12 24 -12 52z" />
<glyph unicode="k" horiz-adv-x="976" d="M82 0v1422h220v-1422h-220zM356 558l334 550h244l-340 -550l342 -558h-242z" />
<glyph unicode="l" horiz-adv-x="396" d="M84 0v1422h228v-1422h-228z" />
<glyph unicode="m" horiz-adv-x="1488" d="M76 0v808q0 104 86 198q100 106 254 106v-212q-100 0 -120 -88q-4 -16 -4 -32v-780h-216zM508 900v212q144 -2 236 -92q94 92 236 92v-212q-104 0 -124 -88q-4 -16 -4 -32v-780h-216v780q0 90 -82 114q-22 6 -46 6zM1070 900v212q190 0 292 -156q50 -78 50 -148v-808 h-216v780q0 104 -100 118q-12 2 -26 2z" />
<glyph unicode="n" horiz-adv-x="952" d="M76 0v808q0 96 88 190q108 112 268 114v-212q-92 0 -128 -72q-12 -24 -12 -46v-782h-216zM520 900v212q190 0 298 -154q58 -80 58 -150v-808h-216v782q0 60 -58 96q-36 22 -82 22z" />
<glyph unicode="o" horiz-adv-x="932" d="M76 302v506q0 98 88 190q104 110 262 110v-206q-104 0 -134 -86q-6 -18 -6 -36v-450q0 -76 70 -110q32 -16 72 -16v-206q-194 0 -300 156q-52 78 -52 148zM514 902v206q188 0 290 -152q52 -78 52 -148v-506q0 -98 -84 -192q-102 -110 -256 -112v206q96 0 126 82 q8 22 8 40v454q0 84 -78 112q-26 10 -58 10z" />
<glyph unicode="p" d="M80 -388v1496h222v-1496h-222zM400 902v206h110q190 0 294 -154q52 -78 52 -148v-504q0 -96 -84 -190q-102 -110 -256 -112h-112v206h112q94 0 124 74q6 14 6 26v496q0 40 -46 72q-38 28 -90 28h-110z" />
<glyph unicode="q" horiz-adv-x="930" d="M78 302v504q0 96 82 190q102 110 258 112h112v-206h-112q-96 0 -124 -76q-6 -14 -6 -24v-496q0 -48 50 -80q34 -20 80 -20h108v-206h-108q-188 0 -288 154q-52 78 -52 148zM626 -388v1496h224v-1496h-224z" />
<glyph unicode="r" horiz-adv-x="648" d="M84 0v1108h216v-138q56 88 168 126q52 18 102 18h52l-50 -210q-118 -2 -206 -114q-66 -86 -66 -178v-612h-216z" />
<glyph unicode="s" horiz-adv-x="886" d="M40 292l198 36q0 -78 82 -118q36 -18 70 -18v-202q-212 0 -306 150q-44 72 -44 152zM50 800q0 184 170 274q82 42 164 42v-198q-96 0 -128 -76q-8 -22 -8 -42q0 -60 104 -106q88 -36 268 -78q138 -28 196 -142q30 -62 30 -136q0 -198 -160 -292q-92 -56 -210 -56v200 q80 0 132 54q32 38 32 84q0 70 -156 118q-32 10 -100 28q-102 24 -144 40q-148 66 -180 194q-10 42 -10 92zM474 918v198q176 0 284 -130q68 -84 68 -176l-198 -34q0 102 -110 134q-24 8 -44 8z" />
<glyph unicode="t" horiz-adv-x="606" d="M32 896v206h136v320h212v-320h132v-208h-132l2 -554q4 -120 120 -122h42l48 -218h-94q-254 0 -310 194q-20 70 -20 166v536h-136z" />
<glyph unicode="u" horiz-adv-x="952" d="M76 294v814h216v-790q0 -64 64 -98q34 -18 76 -18v-212q-194 0 -302 152q-54 78 -54 152zM520 -10v212q100 0 132 78q8 20 8 38v790h216v-814q0 -94 -84 -186q-110 -116 -272 -118z" />
<glyph unicode="v" horiz-adv-x="864" d="M16 1108h238l302 -894l-70 -214h-120zM472 696l138 412h238l-240 -730h-26z" />
<glyph unicode="w" horiz-adv-x="1446" d="M16 1108l352 -1108h120l68 214l-302 894h-238zM472 698l110 -320h26l114 358l234 -736h120l68 214l-302 894h-238zM1062 698l108 -320h26l234 730h-238z" />
<glyph unicode="x" horiz-adv-x="810" d="M16 0l270 562l-264 546h218l166 -314l162 314h220l-260 -546l266 -562h-218l-170 332l-172 -332h-218z" />
<glyph unicode="y" horiz-adv-x="836" d="M12 1108h228l286 -866l-210 -632h-220l198 636zM466 734l138 374h226l-248 -688h-22z" />
<glyph unicode="z" horiz-adv-x="754" d="M60 0v208l394 692h-394v208h634v-204l-386 -696h386v-208h-634z" />
<glyph unicode="{" horiz-adv-x="542" d="M30 696q86 36 104 58q18 24 20 62v222q0 316 144 394q70 38 204 38v-162q-94 0 -120 -62q-24 -60 -24 -308v-172q-4 -50 -80 -70q78 -28 80 -88v-194q0 -254 58 -306q28 -24 86 -24v-160q-166 2 -232 48q-116 88 -116 380v228q0 50 -62 84q-8 6 -30 16t-32 16z" />
<glyph unicode="|" horiz-adv-x="370" d="M100 -268v1776h170v-1776h-170z" />
<glyph unicode="}" horiz-adv-x="542" d="M40 -76v160q84 0 112 64q32 72 32 268v192q4 62 80 88q-78 22 -80 72v170q-2 252 -26 308q-28 62 -118 62v162q182 0 256 -78q92 -100 92 -354v-222q2 -64 64 -94q12 -6 60 -26q-88 -46 -98 -54q-26 -26 -26 -62v-228q0 -322 -152 -396q-66 -32 -196 -32z" />
<glyph unicode="~" horiz-adv-x="1256" d="M160 572v210q122 70 226 70q86 0 218 -70q130 -70 206 -76h24q116 2 262 90v-206q-152 -92 -274 -92q-94 0 -232 74q-144 68 -216 72q-104 -2 -214 -72z" />
<glyph unicode="&#xa1;" horiz-adv-x="428" d="M42 986q0 78 70 114q30 16 60 16q80 0 116 -72q14 -28 14 -58q0 -76 -68 -112q-30 -16 -62 -16q-76 0 -114 68q-16 30 -16 60zM66 -336v1106h214v-1106h-214z" />
<glyph unicode="&#xa2;" horiz-adv-x="892" d="M76 302q0 -106 84 -196q68 -74 170 -96v-178h90v372q-88 2 -124 74q-10 20 -10 38v466q0 70 64 104q32 16 70 16v372h-90v-178q-152 -38 -224 -180q-28 -60 -30 -112v-502zM510 58v-226h92v178q142 40 212 162q38 66 38 136l-196 74v-14v-28l-2 -14q-6 -94 -98 -118 q-22 -6 -44 -6v-144h-2zM510 1048h2v-148q76 0 108 -64q10 -26 12 -54v-58l196 72q0 146 -120 240q-50 38 -106 56v182h-92v-226z" />
<glyph unicode="&#xa3;" horiz-adv-x="868" d="M40 596h116v-596h662v176h-452v422h284v174h-282v284q0 136 110 156q16 2 32 2q108 -2 156 -120l162 80q-40 144 -176 206q-8 2 -12 4q-66 26 -138 26h-4q-228 0 -308 -188q-34 -78 -34 -172v-280h-116v-174z" />
<glyph unicode="&#xa4;" horiz-adv-x="1264" d="M80 1096l116 132l152 -132q92 94 238 94v-190q-100 0 -128 -80q-6 -20 -6 -36v-312q0 -66 64 -100q32 -16 70 -16v-190q-148 2 -240 100l-150 -132l-114 130l180 164q-4 8 -4 40v322q0 26 4 44zM668 266v188q92 0 120 78q8 20 8 38v314q0 68 -62 102q-30 14 -66 14v190 q138 -2 230 -96l150 134l116 -132l-184 -164q6 -12 6 -40v-324q0 -26 -6 -40l182 -164l-116 -130l-148 130q-90 -98 -230 -98z" />
<glyph unicode="&#xa5;" horiz-adv-x="900" d="M34 428h320v-428h218v428h308v104h-298l30 104h268v104h-236l200 656h-220l-158 -508l-164 508h-220l200 -656h-248v-104h280l32 -104h-312v-104z" />
<glyph unicode="&#xa6;" horiz-adv-x="380" d="M84 -276v712h196v-712h-196zM84 810v712h196v-712h-196z" />
<glyph unicode="&#xa7;" horiz-adv-x="1206" d="M108 704q2 188 146 296q-22 56 -22 144q0 236 192 332q82 42 170 42h216v-208h-188q-152 -2 -178 -116q-4 -20 -4 -40q2 -86 110 -140v-246q-42 12 -72 24q-64 30 -88 48q-56 -46 -58 -130q0 -114 170 -178q22 -8 48 -16v-232q-152 50 -188 68q-166 88 -218 192 q-36 70 -36 160zM396 -62h184q138 -2 174 98q10 28 10 60q-2 90 -110 142v244q46 -14 72 -26q62 -22 94 -50q54 52 54 128q0 118 -158 178q-28 12 -62 22v232q158 -54 188 -70q170 -84 222 -196q34 -70 34 -160q-2 -184 -144 -298q20 -58 20 -142q0 -214 -168 -316 q-92 -56 -196 -56h-214v210z" />
<glyph unicode="&#xa8;" horiz-adv-x="764" d="M110 1356q0 76 68 110q26 14 54 14q78 0 110 -72q12 -26 12 -52q0 -78 -68 -110q-26 -12 -54 -12q-78 0 -110 70q-12 26 -12 52zM410 1356q0 76 68 110q26 14 54 14q78 0 110 -72q12 -26 12 -52q0 -78 -68 -110q-26 -12 -54 -12q-78 0 -110 70q-12 26 -12 52z" />
<glyph unicode="&#xa9;" horiz-adv-x="1614" d="M70 678q0 -320 222 -542q192 -190 446 -212q22 -2 40 -2v150q-234 8 -402 190q-162 180 -162 416q0 276 200 458q166 150 364 152v146q-204 0 -398 -142q-254 -186 -302 -492q-8 -60 -8 -122zM526 472q0 -98 72 -174q70 -74 180 -74v146q-74 0 -100 72q-6 16 -6 30v410 q0 52 44 86q28 18 62 18v146q-154 0 -224 -140q-28 -56 -28 -108v-412zM848 72v-150q248 6 450 184q228 202 254 504q2 26 2 50q0 348 -242 576q-186 174 -416 196q-26 2 -48 2v-146q208 -2 372 -162q190 -186 190 -458q0 -236 -170 -414q-168 -174 -392 -182zM848 224 q108 0 184 98q52 68 52 142l-144 52v-36q0 -78 -58 -104q-18 -8 -34 -8v-144zM848 986q56 -2 82 -62q10 -26 10 -54v-32l142 54q0 112 -96 188q-66 52 -138 52v-146z" />
<glyph unicode="&#xaa;" horiz-adv-x="486" d="M32 984q0 -70 74 -108q42 -22 94 -22v98q-74 4 -76 52v22q2 20 12 28q4 4 112 34q46 12 66 24v-100q0 -54 -56 -58q-6 0 -8 -2v-98q66 2 106 34q36 -34 88 -34v100q-26 2 -28 32v270q0 74 -66 122q-44 30 -102 30v-96q56 0 64 -50q2 -8 2 -14v-20q0 -28 -136 -68 q-74 -22 -92 -32q-52 -30 -54 -96v-48zM38 690v106h402v-106h-402zM40 1270l92 -34q0 66 56 74q6 0 12 2v96q-82 0 -132 -62q-26 -36 -28 -76z" />
<glyph unicode="&#xab;" horiz-adv-x="924" d="M44 530v100l422 312v-208l-216 -150l216 -164v-204zM466 530v100l422 312v-208l-216 -150l216 -164v-204z" />
<glyph unicode="&#xac;" horiz-adv-x="1058" d="M80 678v186h878v-448h-192v262h-686z" />
<glyph unicode="&#xad;" horiz-adv-x="752" d="M54 486v202h632v-202h-632z" />
<glyph unicode="&#xae;" horiz-adv-x="796" d="M62 1052q0 192 154 290q82 52 168 54v-72q-118 -2 -196 -102q-56 -74 -56 -168q2 -134 108 -214q64 -46 138 -50l2 -74q-142 4 -242 124q-76 96 -76 212zM280 862v392h68v-392h-68zM378 1026v62h16q58 2 60 50q-4 52 -66 54h-10v64q126 0 138 -96q2 -10 2 -20 q-2 -58 -40 -82q36 -26 40 -74l6 -122h-60l-8 100q-2 56 -50 62q-12 2 -28 2zM416 716v74q122 6 198 110q50 72 50 154q0 144 -114 224q-64 44 -134 46v72q130 -4 228 -108q90 -98 90 -232q0 -172 -136 -274q-84 -60 -182 -66z" />
<glyph unicode="&#xaf;" horiz-adv-x="1020" d="M66 1424v174h900v-174h-900z" />
<glyph unicode="&#xb0;" horiz-adv-x="548" d="M70 1166q0 110 94 172q52 32 110 32q110 0 172 -94q32 -52 32 -110q0 -110 -94 -172q-52 -32 -110 -32q-110 0 -172 94q-32 52 -32 110zM198 1166q0 -54 50 -72q14 -4 26 -4q56 0 74 52q4 12 4 24q0 56 -52 74q-12 4 -26 4q-52 0 -70 -50q-6 -14 -6 -28z" />
<glyph unicode="&#xb1;" horiz-adv-x="858" d="M54 132v202h752v-202h-752zM66 808v202h272v308h202v-308h276v-202h-276v-312h-202v312h-272z" />
<glyph unicode="&#xb2;" horiz-adv-x="450" d="M24 1248q2 82 78 132q40 24 84 26v-98q-40 0 -60 -40q-8 -18 -10 -38zM40 778v102h362v-102h-362zM40 924q0 82 120 160q46 28 48 30q84 56 98 86q8 16 8 30q0 60 -58 76q-12 2 -24 2v98q138 0 172 -116q8 -30 8 -60q0 -88 -88 -154q-14 -8 -28 -18t-42 -26 q-78 -48 -92 -82q-4 -14 -4 -26h-118z" />
<glyph unicode="&#xb3;" horiz-adv-x="460" d="M32 932l92 18q12 -66 68 -78v-98q-88 2 -136 82q-22 38 -24 76zM32 1244q2 82 76 132q40 24 84 26v-98q-62 -12 -68 -72v-6zM204 1038v98q118 2 120 88q0 66 -70 78q-8 2 -14 2v98q102 0 154 -78q28 -44 28 -98q-2 -94 -62 -138q60 -44 62 -138q0 -118 -106 -162 q-38 -14 -76 -14v98q64 4 80 54q4 14 4 26q-4 84 -120 86z" />
<glyph unicode="&#xb4;" horiz-adv-x="740" d="M230 1210l74 304h204l-132 -304h-146z" />
<glyph unicode="&#xb5;" horiz-adv-x="1000" d="M88 0h200v408q86 -26 132 -26v194q-104 0 -128 52q-4 10 -4 18v750h-200v-1396zM504 382q136 2 226 70q78 -66 190 -66v194q-82 2 -84 68v752h-198v-754q0 -42 -68 -62q-32 -8 -66 -8v-194z" />
<glyph unicode="&#xb6;" horiz-adv-x="894" d="M70 1034q0 -230 154 -328q80 -48 184 -48v-668h136v1420h-136q-176 0 -274 -150q-64 -100 -64 -226zM650 -10h136v1420h-136v-1420z" />
<glyph unicode="&#xb7;" horiz-adv-x="444" d="M116 704q0 80 70 116q28 14 58 14q80 0 116 -72q14 -28 14 -58q0 -80 -72 -116q-28 -14 -58 -14q-76 0 -112 68q-16 30 -16 62z" />
<glyph unicode="&#xb8;" horiz-adv-x="836" d="M246 -56v150q128 0 158 98q8 26 8 54h154q0 -166 -122 -248q-80 -54 -198 -54z" />
<glyph unicode="&#xb9;" horiz-adv-x="276" d="M20 1260v92l60 46h106v-628h-106v490h-60z" />
<glyph unicode="&#xba;" horiz-adv-x="460" d="M52 752v112h356v-112h-356zM54 1050v226q0 58 56 102q44 32 100 32v-92q-52 0 -60 -46q-2 -4 -2 -8v-202q0 -44 46 -54q10 -2 18 -2v-92q-102 0 -144 88q-14 26 -14 48zM250 1318v92q98 0 140 -84q14 -28 14 -50v-226q0 -58 -56 -104q-42 -32 -96 -32v92q50 0 58 44 q2 6 2 10v204q-12 48 -62 54z" />
<glyph unicode="&#xbb;" horiz-adv-x="914" d="M30 228v196l228 160l-228 144v202l422 -294v-112zM452 228v196l228 160l-228 144v202l422 -294v-112z" />
<glyph unicode="&#xbc;" horiz-adv-x="1010" d="M0 0l864 1400h128l-854 -1400h-138zM106 1246v102l66 52h132v-700h-132v546h-66zM468 122v116l238 412v-240l-96 -172h96v-116h-238zM760 0v700h132v-462h54v-116h-54v-122h-132z" />
<glyph unicode="&#xbd;" horiz-adv-x="1148" d="M0 0l864 1400h128l-854 -1400h-138zM106 1246v102l66 52h132v-700h-132v546h-66zM608 504q2 106 98 164q48 30 102 32v-126q-70 -8 -80 -78q-2 -8 -2 -14zM614 0v124h452v-124h-452zM614 174q0 98 148 166q6 4 40 18q112 50 136 82q14 20 14 42q-4 86 -92 92v126 q160 0 208 -130q14 -40 14 -88q-2 -118 -140 -186q-18 -10 -58 -26q-96 -40 -110 -74q-4 -12 -4 -22h-156z" />
<glyph unicode="&#xbe;" horiz-adv-x="1178" d="M66 894l118 22q4 -80 80 -92h4v-126q-104 2 -166 90q-34 50 -36 106zM66 1202q4 110 102 168q48 28 100 30v-126q-72 -8 -82 -80q-2 -8 -2 -14zM168 0l864 1400h130l-856 -1400h-138zM276 992v116h32q78 0 92 68q2 8 2 16q0 64 -58 80q-12 2 -22 2v126q102 0 164 -80 q38 -52 38 -118q-2 -108 -70 -152q68 -50 70 -154q0 -116 -104 -172q-48 -26 -98 -26v128q66 0 78 60q2 12 2 20q0 58 -52 78q-20 8 -42 8h-32zM636 122v116l238 412v-240l-96 -172h96v-116h-238zM928 0v700h132v-462h54v-116h-54v-122h-132z" />
<glyph unicode="&#xbf;" horiz-adv-x="890" d="M42 400q0 110 37 195t91 127t107 69t91 33l36 6v276h206v-456q-242 -4 -316 -90q-48 -60 -48 -162q0 -128 110 -188q56 -30 122 -30q144 2 232 116l132 -136q-116 -146 -276 -176q-48 -8 -100 -8q-250 0 -360 188q-60 102 -64 236zM386 1304q0 78 70 110q26 12 52 12 q78 0 110 -70q12 -26 12 -52q0 -78 -70 -110q-26 -12 -52 -12q-78 0 -110 70q-12 26 -12 52z" />
<glyph unicode="&#xc0;" horiz-adv-x="998" d="M62 0l264 1174h30l92 -424l-166 -750h-220zM308 1836h204l74 -304h-146zM412 1400h220l322 -1400h-222l-44 200h-256l46 218h150z" />
<glyph unicode="&#xc1;" horiz-adv-x="998" d="M62 0l264 1174h30l92 -424l-166 -750h-220zM412 1400h220l322 -1400h-222l-44 200h-256l46 218h150zM452 1532l74 304h204l-132 -304h-146z" />
<glyph unicode="&#xc2;" horiz-adv-x="998" d="M62 0l264 1174h30l92 -424l-166 -750h-220zM318 1532l150 304h112l154 -304h-138l-72 146l-70 -146h-136zM412 1400h220l322 -1400h-222l-44 200h-256l46 218h150z" />
<glyph unicode="&#xc3;" horiz-adv-x="998" d="M62 0l264 1174h30l92 -424l-166 -750h-220zM242 1542v168q78 44 140 44q50 0 142 -46q70 -36 120 -36q70 2 160 56v-166q-92 -56 -168 -56q-54 0 -148 46q-68 34 -114 34q-62 -2 -132 -44zM412 1400h220l322 -1400h-222l-44 200h-256l46 218h150z" />
<glyph unicode="&#xc4;" horiz-adv-x="998" d="M62 0l264 1174h30l92 -424l-166 -750h-220zM252 1654q0 76 68 110q26 14 54 14q78 0 110 -72q12 -26 12 -52q0 -78 -68 -110q-26 -12 -54 -12q-78 0 -110 70q-12 26 -12 52zM412 1400h220l322 -1400h-222l-44 200h-256l46 218h150zM552 1654q0 76 68 110q26 14 54 14 q78 0 110 -72q12 -26 12 -52q0 -78 -68 -110q-26 -12 -54 -12q-78 0 -110 70q-12 26 -12 52z" />
<glyph unicode="&#xc5;" horiz-adv-x="1032" d="M80 0l262 1174h32l90 -424l-164 -750h-220zM360 1530q0 102 86 154q44 24 92 24q100 0 152 -84q26 -44 26 -94q-2 -86 -66 -134l302 -1396h-216l-46 200h-242l48 218h150l-216 976q-68 48 -70 136zM470 1530q0 -48 46 -64q12 -4 22 -4q48 0 64 46q4 12 4 22q0 48 -46 64 q-12 4 -22 4q-48 0 -64 -46q-4 -12 -4 -22z" />
<glyph unicode="&#xc6;" horiz-adv-x="1454" d="M84 0l360 1400h958v-222h-476v-372h288v-222h-288v-362h476v-222h-698v320h-192l48 192h144v666h-80l-294 -1178h-246z" />
<glyph unicode="&#xc7;" horiz-adv-x="1000" d="M78 362q0 -116 86 -226q116 -144 310 -146v222q-118 0 -162 104q-12 28 -12 46v674q0 54 50 104q52 46 124 48v222q-226 0 -340 -192q-56 -94 -56 -182v-674zM280 -232q128 0 158 98q8 26 8 54h154q0 -166 -122 -248q-80 -54 -198 -54v150zM576 -10q158 0 274 124 q100 110 100 250l-216 52q0 -22 -2 -28q0 -42 -10 -72q-16 -40 -52 -66t-66 -32l-28 -6v-222zM576 1188l52 -16q68 -34 94 -98q10 -30 10 -68v-30l218 56q0 154 -128 274q-114 104 -246 104v-222z" />
<glyph unicode="&#xc8;" horiz-adv-x="888" d="M82 0v1400h728v-220h-504v-372h316v-224h-316v-362h504v-222h-728zM230 1836h204l74 -304h-146z" />
<glyph unicode="&#xc9;" horiz-adv-x="888" d="M82 0v1400h728v-220h-504v-372h316v-224h-316v-362h504v-222h-728zM484 1532l74 304h204l-132 -304h-146z" />
<glyph unicode="&#xca;" horiz-adv-x="888" d="M82 0v1400h728v-220h-504v-372h316v-224h-316v-362h504v-222h-728zM240 1532l150 304h112l154 -304h-138l-72 146l-70 -146h-136z" />
<glyph unicode="&#xcb;" horiz-adv-x="888" d="M82 0v1400h728v-220h-504v-372h316v-224h-316v-362h504v-222h-728zM176 1654q0 76 68 110q26 14 54 14q78 0 110 -72q12 -26 12 -52q0 -78 -68 -110q-26 -12 -54 -12q-78 0 -110 70q-12 26 -12 52zM476 1654q0 76 68 110q26 14 54 14q78 0 110 -72q12 -26 12 -52 q0 -78 -68 -110q-26 -12 -54 -12q-78 0 -110 70q-12 26 -12 52z" />
<glyph unicode="&#xcc;" horiz-adv-x="392" d="M-10 1836h204l74 -304h-146zM84 0v1400h224v-1400h-224z" />
<glyph unicode="&#xcd;" horiz-adv-x="392" d="M84 0v1400h224v-1400h-224zM122 1532l74 304h204l-132 -304h-146z" />
<glyph unicode="&#xce;" horiz-adv-x="392" d="M-12 1532l150 304h112l154 -304h-138l-72 146l-70 -146h-136zM84 0v1400h224v-1400h-224z" />
<glyph unicode="&#xcf;" horiz-adv-x="392" d="M-76 1654q0 76 68 110q26 14 54 14q78 0 110 -72q12 -26 12 -52q0 -78 -68 -110q-26 -12 -54 -12q-78 0 -110 70q-12 26 -12 52zM84 0v1400h224v-1400h-224zM224 1654q0 76 68 110q26 14 54 14q78 0 110 -72q12 -26 12 -52q0 -78 -68 -110q-26 -12 -54 -12q-78 0 -110 70 q-12 26 -12 52z" />
<glyph unicode="&#xd0;" horiz-adv-x="974" d="M52 608v204h114v588h222v-588h112v-204h-112v-608h-222v608h-114zM492 0v222q230 0 234 168v4v612q0 120 -134 158q-44 14 -100 14v222q254 0 382 -166q76 -102 76 -228v-612q0 -278 -262 -364q-92 -30 -196 -30z" />
<glyph unicode="&#xd1;" horiz-adv-x="1058" d="M84 0v1044h16l208 -334v-710h-224zM84 1256v144h186l704 -1130v-270h-108zM248 1568v168q78 44 140 44q50 0 142 -46q70 -36 120 -36q70 2 160 56v-166q-92 -56 -168 -56q-54 0 -148 46q-68 34 -114 34q-62 -2 -132 -44zM750 816v584h224v-918h-16z" />
<glyph unicode="&#xd2;" horiz-adv-x="1050" d="M78 390v658q0 106 90 216q120 144 304 146v-222q-104 -2 -156 -112q-16 -36 -16 -60v-626q0 -108 112 -160q34 -16 58 -16v-224q-114 0 -228 82q-162 120 -164 318zM306 1836h204l74 -304h-146zM580 -10v224q52 0 108 48q60 54 62 128v626q0 60 -52 116q-50 54 -118 56 v222q202 0 324 -174q70 -100 70 -188v-658q0 -222 -198 -340q-104 -60 -196 -60z" />
<glyph unicode="&#xd3;" horiz-adv-x="1050" d="M78 390v658q0 106 90 216q120 144 304 146v-222q-104 -2 -156 -112q-16 -36 -16 -60v-626q0 -108 112 -160q34 -16 58 -16v-224q-114 0 -228 82q-162 120 -164 318zM452 1532l74 304h204l-132 -304h-146zM580 -10v224q52 0 108 48q60 54 62 128v626q0 60 -52 116 q-50 54 -118 56v222q202 0 324 -174q70 -100 70 -188v-658q0 -222 -198 -340q-104 -60 -196 -60z" />
<glyph unicode="&#xd4;" horiz-adv-x="1050" d="M78 390v658q0 106 90 216q120 144 304 146v-222q-104 -2 -156 -112q-16 -36 -16 -60v-626q0 -108 112 -160q34 -16 58 -16v-224q-114 0 -228 82q-162 120 -164 318zM316 1532l150 304h112l154 -304h-138l-72 146l-70 -146h-136zM580 -10v224q52 0 108 48q60 54 62 128 v626q0 60 -52 116q-50 54 -118 56v222q202 0 324 -174q70 -100 70 -188v-658q0 -222 -198 -340q-104 -60 -196 -60z" />
<glyph unicode="&#xd5;" horiz-adv-x="1050" d="M78 390v658q0 106 90 216q120 144 304 146v-222q-104 -2 -156 -112q-16 -36 -16 -60v-626q0 -108 112 -160q34 -16 58 -16v-224q-114 0 -228 82q-162 120 -164 318zM242 1550v168q78 44 140 44q50 0 142 -46q70 -36 120 -36q70 2 160 56v-166q-92 -56 -168 -56 q-54 0 -148 46q-68 34 -114 34q-62 -2 -132 -44zM580 -10v224q52 0 108 48q60 54 62 128v626q0 60 -52 116q-50 54 -118 56v222q202 0 324 -174q70 -100 70 -188v-658q0 -222 -198 -340q-104 -60 -196 -60z" />
<glyph unicode="&#xd6;" horiz-adv-x="1050" d="M78 390v658q0 106 90 216q120 144 304 146v-222q-104 -2 -156 -112q-16 -36 -16 -60v-626q0 -108 112 -160q34 -16 58 -16v-224q-114 0 -228 82q-162 120 -164 318zM252 1654q0 76 68 110q26 14 54 14q78 0 110 -72q12 -26 12 -52q0 -78 -68 -110q-26 -12 -54 -12 q-78 0 -110 70q-12 26 -12 52zM552 1654q0 76 68 110q26 14 54 14q78 0 110 -72q12 -26 12 -52q0 -78 -68 -110q-26 -12 -54 -12q-78 0 -110 70q-12 26 -12 52zM580 -10v224q52 0 108 48q60 54 62 128v626q0 60 -52 116q-50 54 -118 56v222q202 0 324 -174q70 -100 70 -188 v-658q0 -222 -198 -340q-104 -60 -196 -60z" />
<glyph unicode="&#xd7;" horiz-adv-x="1276" d="M208 498l336 336l-336 338l142 144l336 -336l336 334l144 -144l-336 -334l336 -336l-144 -144l-336 334l-334 -336z" />
<glyph unicode="&#xd8;" horiz-adv-x="1330" d="M14 244l202 182v622q0 106 90 216q120 144 304 146v-222q-110 -2 -156 -114q-14 -36 -14 -66v-380l446 402q-14 98 -92 140q-34 16 -76 18v222q202 0 320 -172q16 -24 28 -46l118 106l124 -140l-196 -178v-590q0 -222 -198 -340q-104 -60 -196 -60v224q54 0 110 48 q58 54 60 128v388l-446 -404q8 -100 116 -146q30 -14 50 -14v-224q-112 0 -228 82q-78 60 -120 140l-120 -108z" />
<glyph unicode="&#xd9;" horiz-adv-x="1032" d="M68 386v1014h224v-1014q2 -112 122 -160q30 -12 50 -12v-224q-114 0 -230 80q-164 118 -166 316zM294 1836h204l74 -304h-146zM568 -10v224q52 0 108 44q62 52 64 128v1014h222v-1014q0 -226 -200 -338q-102 -58 -194 -58z" />
<glyph unicode="&#xda;" horiz-adv-x="1032" d="M68 386v1014h224v-1014q2 -112 122 -160q30 -12 50 -12v-224q-114 0 -230 80q-164 118 -166 316zM438 1532l74 304h204l-132 -304h-146zM568 -10v224q52 0 108 44q62 52 64 128v1014h222v-1014q0 -226 -200 -338q-102 -58 -194 -58z" />
<glyph unicode="&#xdb;" horiz-adv-x="1032" d="M68 386v1014h224v-1014q2 -112 122 -160q30 -12 50 -12v-224q-114 0 -230 80q-164 118 -166 316zM304 1532l150 304h112l154 -304h-138l-72 146l-70 -146h-136zM568 -10v224q52 0 108 44q62 52 64 128v1014h222v-1014q0 -226 -200 -338q-102 -58 -194 -58z" />
<glyph unicode="&#xdc;" horiz-adv-x="1032" d="M68 386v1014h224v-1014q2 -112 122 -160q30 -12 50 -12v-224q-114 0 -230 80q-164 118 -166 316zM238 1654q0 76 68 110q26 14 54 14q78 0 110 -72q12 -26 12 -52q0 -78 -68 -110q-26 -12 -54 -12q-78 0 -110 70q-12 26 -12 52zM538 1654q0 76 68 110q26 14 54 14 q78 0 110 -72q12 -26 12 -52q0 -78 -68 -110q-26 -12 -54 -12q-78 0 -110 70q-12 26 -12 52zM568 -10v224q52 0 108 44q62 52 64 128v1014h222v-1014q0 -226 -200 -338q-102 -58 -194 -58z" />
<glyph unicode="&#xdd;" horiz-adv-x="922" d="M34 1400h232l292 -894v-506h-230v504zM378 1532l74 304h204l-132 -304h-146zM512 1010l146 390h230l-256 -750h-16z" />
<glyph unicode="&#xde;" horiz-adv-x="948" d="M82 0v1400h222v-1400h-222zM410 416v220h72q186 4 188 160q-2 164 -188 164h-72v220q348 4 440 -164q44 -82 46 -214q2 -272 -198 -348q-110 -42 -288 -38z" />
<glyph unicode="&#xdf;" horiz-adv-x="1044" d="M52 0v914q2 176 24 252q74 242 376 244q330 0 358 -312q2 -30 2 -62v-226l-120 2q-68 -8 -80 -72q-2 -8 -2 -12q0 -58 100 -102q32 -14 72 -28q208 -74 210 -282q0 -186 -152 -270q-84 -46 -186 -46h-256v176h240q116 4 154 76q12 26 12 54q0 74 -68 112q-18 10 -60 30 q-40 18 -60 28q-122 60 -160 130q-32 58 -32 136q0 158 158 220q24 10 48 16v24q0 182 -122 210q-26 6 -58 6q-190 -4 -192 -222v-996h-206z" />
<glyph unicode="&#xe0;" d="M58 258q0 -112 108 -190q94 -68 224 -68v198q-148 2 -150 104v42q2 40 24 56q16 12 188 58q120 32 168 58v-198q0 -96 -90 -116q-18 -4 -38 -4v-198q132 2 212 68q70 -68 176 -68v200q-52 4 -54 64v538q0 120 -96 214t-240 94v-196q90 0 120 -74q10 -24 10 -50v-42 q0 -52 -220 -120q-208 -64 -236 -80q-104 -62 -106 -192v-98zM74 832l184 -70q0 114 88 144q22 8 44 8v196q-138 0 -238 -100q-78 -80 -78 -178zM226 1538h204l74 -304h-146z" />
<glyph unicode="&#xe1;" d="M58 258q0 -112 108 -190q94 -68 224 -68v198q-148 2 -150 104v42q2 40 24 56q16 12 188 58q120 32 168 58v-198q0 -96 -90 -116q-18 -4 -38 -4v-198q132 2 212 68q70 -68 176 -68v200q-52 4 -54 64v538q0 120 -96 214t-240 94v-196q90 0 120 -74q10 -24 10 -50v-42 q0 -52 -220 -120q-208 -64 -236 -80q-104 -62 -106 -192v-98zM74 832l184 -70q0 114 88 144q22 8 44 8v196q-138 0 -238 -100q-78 -80 -78 -178zM360 1234l74 304h204l-132 -304h-146z" />
<glyph unicode="&#xe2;" d="M58 258q0 -112 108 -190q94 -68 224 -68v198q-148 2 -150 104v42q2 40 24 56q16 12 188 58q120 32 168 58v-198q0 -96 -90 -116q-18 -4 -38 -4v-198q132 2 212 68q70 -68 176 -68v200q-52 4 -54 64v538q0 120 -96 214t-240 94v-196q90 0 120 -74q10 -24 10 -50v-42 q0 -52 -220 -120q-208 -64 -236 -80q-104 -62 -106 -192v-98zM74 832l184 -70q0 114 88 144q22 8 44 8v196q-138 0 -238 -100q-78 -80 -78 -178zM224 1234l150 304h112l154 -304h-138l-72 146l-70 -146h-136z" />
<glyph unicode="&#xe3;" d="M58 258q0 -112 108 -190q94 -68 224 -68v198q-148 2 -150 104v42q2 40 24 56q16 12 188 58q120 32 168 58v-198q0 -96 -90 -116q-18 -4 -38 -4v-198q132 2 212 68q70 -68 176 -68v200q-52 4 -54 64v538q0 120 -96 214t-240 94v-196q90 0 120 -74q10 -24 10 -50v-42 q0 -52 -220 -120q-208 -64 -236 -80q-104 -62 -106 -192v-98zM74 832l184 -70q0 114 88 144q22 8 44 8v196q-138 0 -238 -100q-78 -80 -78 -178zM156 1268v168q78 44 140 44q50 0 142 -46q70 -36 120 -36q70 2 160 56v-166q-92 -56 -168 -56q-54 0 -148 46q-68 34 -114 34 q-62 -2 -132 -44z" />
<glyph unicode="&#xe4;" d="M58 258q0 -112 108 -190q94 -68 224 -68v198q-148 2 -150 104v42q2 40 24 56q16 12 188 58q120 32 168 58v-198q0 -96 -90 -116q-18 -4 -38 -4v-198q132 2 212 68q70 -68 176 -68v200q-52 4 -54 64v538q0 120 -96 214t-240 94v-196q90 0 120 -74q10 -24 10 -50v-42 q0 -52 -220 -120q-208 -64 -236 -80q-104 -62 -106 -192v-98zM74 832l184 -70q0 114 88 144q22 8 44 8v196q-138 0 -238 -100q-78 -80 -78 -178zM160 1354q0 76 68 110q26 14 54 14q78 0 110 -72q12 -26 12 -52q0 -78 -68 -110q-26 -12 -54 -12q-78 0 -110 70q-12 26 -12 52 zM460 1354q0 76 68 110q26 14 54 14q78 0 110 -72q12 -26 12 -52q0 -78 -68 -110q-26 -12 -54 -12q-78 0 -110 70q-12 26 -12 52z" />
<glyph unicode="&#xe5;" d="M58 258q0 -112 108 -190q94 -68 224 -68v198q-148 2 -150 104v42q2 40 24 56q16 12 188 58q120 32 168 58v-198q0 -96 -90 -116q-18 -4 -38 -4v-198q132 2 212 68q70 -68 176 -68v200q-52 4 -54 64v538q0 120 -96 214t-240 94v-196q90 0 120 -74q10 -24 10 -50v-42 q0 -52 -220 -120q-208 -64 -236 -80q-104 -62 -106 -192v-98zM74 832l184 -70q0 114 88 144q22 8 44 8v196q-138 0 -238 -100q-78 -80 -78 -178zM264 1426q0 96 84 150q44 26 92 26q96 0 150 -84q26 -44 26 -92q0 -96 -84 -150q-44 -26 -92 -26q-96 0 -150 84q-26 44 -26 92 zM376 1426q0 -48 44 -62q12 -2 20 -2q48 0 62 44q2 12 2 20q0 48 -44 62q-12 2 -20 2q-48 0 -62 -44q-2 -12 -2 -20z" />
<glyph unicode="&#xe6;" horiz-adv-x="1198" d="M52 226q0 -108 112 -176q84 -48 198 -48v182q-140 4 -142 110v30q-2 64 138 104l66 18q122 30 156 54v-202q0 -76 -70 -104q-26 -10 -54 -10v-182q150 2 216 98q92 -100 280 -100q246 0 340 162q22 36 32 78l-162 60q-34 -124 -214 -126q-112 0 -160 70q-20 30 -20 64 v130h554v318q0 122 -128 210q-94 66 -196 66v-184q80 0 122 -62q18 -30 18 -62v-98h-370v98q0 66 64 102q32 20 72 20v186q-134 -2 -226 -92q-94 98 -266 98q-162 0 -262 -106q-70 -76 -70 -174l156 -44q0 110 114 142q34 8 68 8q100 0 146 -62q16 -26 16 -50v-44 q0 -54 -130 -98q-24 -8 -76 -24q-200 -60 -264 -118q-58 -52 -58 -122v-120z" />
<glyph unicode="&#xe7;" horiz-adv-x="898" d="M76 302q0 -104 82 -194q100 -108 264 -108v204q-104 0 -130 70q-6 14 -6 28v502q0 54 58 84q34 18 78 18v202q-196 0 -296 -156q-48 -74 -50 -144v-506zM226 -232q128 0 158 98q8 26 8 54h154q0 -166 -122 -248q-80 -54 -198 -54v150zM512 -2q142 -4 250 106 q90 92 90 204l-196 74v-54q-10 -124 -144 -126v-204zM512 904q96 0 116 -90q4 -16 4 -32v-56l196 74q0 148 -120 242q-88 66 -196 66v-204z" />
<glyph unicode="&#xe8;" horiz-adv-x="950" d="M76 302v508q4 98 90 190q106 106 256 108v-200q-78 0 -118 -70q-14 -24 -14 -44v-120h380v118q0 84 -92 110q-26 8 -52 8v198q142 0 252 -98q92 -88 94 -198v-344h-582v-166q0 -52 58 -86q36 -20 78 -20v-196q-186 0 -294 150q-56 82 -56 152zM268 1532h204l74 -304h-146 zM526 0v198q116 0 160 98q6 14 10 26l178 -64q-36 -136 -162 -210q-86 -48 -186 -48z" />
<glyph unicode="&#xe9;" horiz-adv-x="950" d="M76 302v508q4 98 90 190q106 106 256 108v-200q-78 0 -118 -70q-14 -24 -14 -44v-120h380v118q0 84 -92 110q-26 8 -52 8v198q142 0 252 -98q92 -88 94 -198v-344h-582v-166q0 -52 58 -86q36 -20 78 -20v-196q-186 0 -294 150q-56 82 -56 152zM402 1228l74 304h204 l-132 -304h-146zM526 0v198q116 0 160 98q6 14 10 26l178 -64q-36 -136 -162 -210q-86 -48 -186 -48z" />
<glyph unicode="&#xea;" horiz-adv-x="950" d="M76 302v508q4 98 90 190q106 106 256 108v-200q-78 0 -118 -70q-14 -24 -14 -44v-120h380v118q0 84 -92 110q-26 8 -52 8v198q142 0 252 -98q92 -88 94 -198v-344h-582v-166q0 -52 58 -86q36 -20 78 -20v-196q-186 0 -294 150q-56 82 -56 152zM266 1228l150 304h112 l154 -304h-138l-72 146l-70 -146h-136zM526 0v198q116 0 160 98q6 14 10 26l178 -64q-36 -136 -162 -210q-86 -48 -186 -48z" />
<glyph unicode="&#xeb;" horiz-adv-x="950" d="M76 302v508q4 98 90 190q106 106 256 108v-200q-78 0 -118 -70q-14 -24 -14 -44v-120h380v118q0 84 -92 110q-26 8 -52 8v198q142 0 252 -98q92 -88 94 -198v-344h-582v-166q0 -52 58 -86q36 -20 78 -20v-196q-186 0 -294 150q-56 82 -56 152zM202 1348q0 76 68 110 q26 14 54 14q78 0 110 -72q12 -26 12 -52q0 -78 -68 -110q-26 -12 -54 -12q-78 0 -110 70q-12 26 -12 52zM502 1348q0 76 68 110q26 14 54 14q78 0 110 -72q12 -26 12 -52q0 -78 -68 -110q-26 -12 -54 -12q-78 0 -110 70q-12 26 -12 52zM526 0v198q116 0 160 98q6 14 10 26 l178 -64q-36 -136 -162 -210q-86 -48 -186 -48z" />
<glyph unicode="&#xec;" horiz-adv-x="348" d="M-32 1532h204l74 -304h-146zM76 0v1032h196v-1032h-196z" />
<glyph unicode="&#xed;" horiz-adv-x="348" d="M76 0v1032h196v-1032h-196zM102 1228l74 304h204l-132 -304h-146z" />
<glyph unicode="&#xee;" horiz-adv-x="348" d="M-34 1228l150 304h112l154 -304h-138l-72 146l-70 -146h-136zM76 0v1032h196v-1032h-196z" />
<glyph unicode="&#xef;" horiz-adv-x="348" d="M-98 1348q0 76 68 110q26 14 54 14q78 0 110 -72q12 -26 12 -52q0 -78 -68 -110q-26 -12 -54 -12q-78 0 -110 70q-12 26 -12 52zM76 0v1032h196v-1032h-196zM202 1348q0 76 68 110q26 14 54 14q78 0 110 -72q12 -26 12 -52q0 -78 -68 -110q-26 -12 -54 -12q-78 0 -110 70 q-12 26 -12 52z" />
<glyph unicode="&#xf0;" horiz-adv-x="840" d="M56 282v470q0 92 84 178q98 102 244 102v-190q-100 0 -128 -82q-6 -18 -6 -34v-418q0 -72 66 -104q32 -16 68 -16v-190q-184 0 -282 148q-46 72 -46 136zM384 1316v112q180 -34 280 -152l106 34l32 -104l-76 -24q58 -124 58 -302v-598q0 -94 -82 -182q-94 -100 -236 -102 v190q94 0 122 80q6 20 6 36v428q0 76 -74 102q-26 8 -54 8v190q72 0 122 -32q-4 80 -24 132l-118 -34l-32 102l102 32q-44 46 -132 84z" />
<glyph unicode="&#xf1;" horiz-adv-x="952" d="M76 0v808q0 96 88 190q108 112 268 114v-212q-92 0 -128 -72q-12 -24 -12 -46v-782h-216zM194 1268v168q78 44 140 44q50 0 142 -46q70 -36 120 -36q70 2 160 56v-166q-92 -56 -168 -56q-54 0 -148 46q-68 34 -114 34q-62 -2 -132 -44zM520 900v212q190 0 298 -154 q58 -80 58 -150v-808h-216v782q0 60 -58 96q-36 22 -82 22z" />
<glyph unicode="&#xf2;" horiz-adv-x="932" d="M76 302v506q0 98 88 190q104 110 262 110v-206q-104 0 -134 -86q-6 -18 -6 -36v-450q0 -76 70 -110q32 -16 72 -16v-206q-194 0 -300 156q-52 78 -52 148zM264 1532h204l74 -304h-146zM514 902v206q188 0 290 -152q52 -78 52 -148v-506q0 -98 -84 -192 q-102 -110 -256 -112v206q96 0 126 82q8 22 8 40v454q0 84 -78 112q-26 10 -58 10z" />
<glyph unicode="&#xf3;" horiz-adv-x="932" d="M76 302v506q0 98 88 190q104 110 262 110v-206q-104 0 -134 -86q-6 -18 -6 -36v-450q0 -76 70 -110q32 -16 72 -16v-206q-194 0 -300 156q-52 78 -52 148zM398 1228l74 304h204l-132 -304h-146zM514 902v206q188 0 290 -152q52 -78 52 -148v-506q0 -98 -84 -192 q-102 -110 -256 -112v206q96 0 126 82q8 22 8 40v454q0 84 -78 112q-26 10 -58 10z" />
<glyph unicode="&#xf4;" horiz-adv-x="932" d="M76 302v506q0 98 88 190q104 110 262 110v-206q-104 0 -134 -86q-6 -18 -6 -36v-450q0 -76 70 -110q32 -16 72 -16v-206q-194 0 -300 156q-52 78 -52 148zM264 1228l150 304h112l154 -304h-138l-72 146l-70 -146h-136zM514 902v206q188 0 290 -152q52 -78 52 -148v-506 q0 -98 -84 -192q-102 -110 -256 -112v206q96 0 126 82q8 22 8 40v454q0 84 -78 112q-26 10 -58 10z" />
<glyph unicode="&#xf5;" horiz-adv-x="932" d="M76 302v506q0 98 88 190q104 110 262 110v-206q-104 0 -134 -86q-6 -18 -6 -36v-450q0 -76 70 -110q32 -16 72 -16v-206q-194 0 -300 156q-52 78 -52 148zM190 1262v168q78 44 140 44q50 0 142 -46q70 -36 120 -36q70 2 160 56v-166q-92 -56 -168 -56q-54 0 -148 46 q-68 34 -114 34q-62 -2 -132 -44zM514 902v206q188 0 290 -152q52 -78 52 -148v-506q0 -98 -84 -192q-102 -110 -256 -112v206q96 0 126 82q8 22 8 40v454q0 84 -78 112q-26 10 -58 10z" />
<glyph unicode="&#xf6;" horiz-adv-x="932" d="M76 302v506q0 98 88 190q104 110 262 110v-206q-104 0 -134 -86q-6 -18 -6 -36v-450q0 -76 70 -110q32 -16 72 -16v-206q-194 0 -300 156q-52 78 -52 148zM198 1348q0 76 68 110q26 14 54 14q78 0 110 -72q12 -26 12 -52q0 -78 -68 -110q-26 -12 -54 -12q-78 0 -110 70 q-12 26 -12 52zM498 1348q0 76 68 110q26 14 54 14q78 0 110 -72q12 -26 12 -52q0 -78 -68 -110q-26 -12 -54 -12q-78 0 -110 70q-12 26 -12 52zM514 902v206q188 0 290 -152q52 -78 52 -148v-506q0 -98 -84 -192q-102 -110 -256 -112v206q96 0 126 82q8 22 8 40v454 q0 84 -78 112q-26 10 -58 10z" />
<glyph unicode="&#xf7;" horiz-adv-x="1300" d="M154 482v202h900v-202h-900zM492 288q0 80 70 116q28 14 58 14q80 0 116 -72q14 -28 14 -58q0 -80 -72 -116q-28 -14 -58 -14q-76 0 -112 68q-16 30 -16 62zM492 928q0 80 70 116q28 14 58 14q80 0 116 -72q14 -28 14 -58q0 -80 -72 -116q-28 -14 -58 -14q-76 0 -112 68 q-16 30 -16 62z" />
<glyph unicode="&#xf8;" horiz-adv-x="950" d="M8 156l128 116q-2 6 -2 28v452q0 92 82 178q100 102 246 102v-190q-100 0 -128 -82q-6 -18 -6 -34v-278l338 312q-28 80 -122 82v190q176 -2 266 -140l88 80l92 -102l-130 -118v-12q2 -12 2 -14v-444q0 -94 -82 -182q-96 -100 -236 -102v190q94 0 122 80q6 20 6 36v274 l-336 -308q26 -80 126 -82v-190q-182 2 -272 138l-90 -82z" />
<glyph unicode="&#xf9;" horiz-adv-x="952" d="M76 294v814h216v-790q0 -64 64 -98q34 -18 76 -18v-212q-194 0 -302 152q-54 78 -54 152zM270 1532h204l74 -304h-146zM520 -10v212q100 0 132 78q8 20 8 38v790h216v-814q0 -94 -84 -186q-110 -116 -272 -118z" />
<glyph unicode="&#xfa;" horiz-adv-x="952" d="M76 294v814h216v-790q0 -64 64 -98q34 -18 76 -18v-212q-194 0 -302 152q-54 78 -54 152zM496 1228l74 304h204l-132 -304h-146zM520 -10v212q100 0 132 78q8 20 8 38v790h216v-814q0 -94 -84 -186q-110 -116 -272 -118z" />
<glyph unicode="&#xfb;" horiz-adv-x="952" d="M76 294v814h216v-790q0 -64 64 -98q34 -18 76 -18v-212q-194 0 -302 152q-54 78 -54 152zM268 1228l150 304h112l154 -304h-138l-72 146l-70 -146h-136zM520 -10v212q100 0 132 78q8 20 8 38v790h216v-814q0 -94 -84 -186q-110 -116 -272 -118z" />
<glyph unicode="&#xfc;" horiz-adv-x="952" d="M76 294v814h216v-790q0 -64 64 -98q34 -18 76 -18v-212q-194 0 -302 152q-54 78 -54 152zM204 1348q0 76 68 110q26 14 54 14q78 0 110 -72q12 -26 12 -52q0 -78 -68 -110q-26 -12 -54 -12q-78 0 -110 70q-12 26 -12 52zM504 1348q0 76 68 110q26 14 54 14q78 0 110 -72 q12 -26 12 -52q0 -78 -68 -110q-26 -12 -54 -12q-78 0 -110 70q-12 26 -12 52zM520 -10v212q100 0 132 78q8 20 8 38v790h216v-814q0 -94 -84 -186q-110 -116 -272 -118z" />
<glyph unicode="&#xfd;" horiz-adv-x="836" d="M12 1108h228l286 -866l-210 -632h-220l198 636zM438 1238l74 304h204l-132 -304h-146zM466 734l138 374h226l-248 -688h-22z" />
<glyph unicode="&#xfe;" horiz-adv-x="844" d="M60 -364v1764h200v-1764h-200zM346 846v190h110q180 0 282 -136q54 -76 54 -146v-476q0 -104 -90 -188q-94 -90 -238 -90h-104v190h108q122 14 130 104v450q0 66 -78 92q-30 10 -64 10h-110z" />
<glyph unicode="&#xff;" horiz-adv-x="836" d="M12 1108h228l286 -866l-210 -632h-220l198 636zM146 1360q0 76 68 110q26 14 54 14q78 0 110 -72q12 -26 12 -52q0 -78 -68 -110q-26 -12 -54 -12q-78 0 -110 70q-12 26 -12 52zM446 1360q0 76 68 110q26 14 54 14q78 0 110 -72q12 -26 12 -52q0 -78 -68 -110 q-26 -12 -54 -12q-78 0 -110 70q-12 26 -12 52zM466 734l138 374h226l-248 -688h-22z" />
<glyph unicode="&#x152;" horiz-adv-x="1272" d="M22 398v630q0 182 152 288q120 84 292 84v-222q-182 -2 -216 -124q-6 -24 -6 -48v-608q2 -174 220 -174v-224q-222 0 -344 128q-98 104 -98 270zM570 0v224h98v954h-98v222h826v-220h-504v-372h316v-224h-316v-362h504v-222h-826z" />
<glyph unicode="&#x153;" horiz-adv-x="1392" d="M54 282q0 -86 78 -174q98 -108 250 -110v184q-94 0 -126 80q-8 22 -8 44v420q0 82 78 108q26 8 56 8v190q-184 0 -282 -148q-46 -70 -46 -132v-470zM464 -2q140 2 228 96q106 -94 270 -94q254 0 346 170q16 34 26 70l-162 60q-34 -124 -214 -126q-108 0 -158 68 q-22 32 -22 66v130h554v318q0 122 -126 210q-96 66 -196 66v-184q76 0 118 -62q20 -30 20 -62v-98h-370v98q2 68 66 104q34 18 70 18v186q-136 -2 -224 -92q-90 92 -226 92v-190q106 0 128 -86q4 -16 4 -32v-422q0 -70 -64 -104q-30 -16 -68 -16v-184z" />
<glyph unicode="&#x178;" horiz-adv-x="922" d="M34 1400h232l292 -894v-506h-230v504zM178 1654q0 76 68 110q26 14 54 14q78 0 110 -72q12 -26 12 -52q0 -78 -68 -110q-26 -12 -54 -12q-78 0 -110 70q-12 26 -12 52zM478 1654q0 76 68 110q26 14 54 14q78 0 110 -72q12 -26 12 -52q0 -78 -68 -110q-26 -12 -54 -12 q-78 0 -110 70q-12 26 -12 52zM512 1010l146 390h230l-256 -750h-16z" />
<glyph unicode="&#x2c6;" horiz-adv-x="540" d="M62 1028l150 304h112l154 -304h-138l-72 146l-70 -146h-136z" />
<glyph unicode="&#x2dc;" horiz-adv-x="666" d="M52 226v168q78 44 140 44q50 0 142 -46q70 -36 120 -36q70 2 160 56v-166q-92 -56 -168 -56q-54 0 -148 46q-68 34 -114 34q-62 -2 -132 -44z" />
<glyph unicode="&#x2000;" horiz-adv-x="918" />
<glyph unicode="&#x2001;" horiz-adv-x="1836" />
<glyph unicode="&#x2002;" horiz-adv-x="918" />
<glyph unicode="&#x2003;" horiz-adv-x="1836" />
<glyph unicode="&#x2004;" horiz-adv-x="612" />
<glyph unicode="&#x2005;" horiz-adv-x="459" />
<glyph unicode="&#x2006;" horiz-adv-x="306" />
<glyph unicode="&#x2007;" horiz-adv-x="306" />
<glyph unicode="&#x2008;" horiz-adv-x="229" />
<glyph unicode="&#x2009;" horiz-adv-x="367" />
<glyph unicode="&#x200a;" horiz-adv-x="102" />
<glyph unicode="&#x2010;" horiz-adv-x="820" d="M94 486v202h632v-202h-632z" />
<glyph unicode="&#x2011;" horiz-adv-x="820" d="M94 486v202h632v-202h-632z" />
<glyph unicode="&#x2012;" horiz-adv-x="820" d="M94 486v202h632v-202h-632z" />
<glyph unicode="&#x2013;" horiz-adv-x="1064" d="M52 486v202h960v-202h-960z" />
<glyph unicode="&#x2014;" horiz-adv-x="1812" d="M52 486v202h1708v-202h-1708z" />
<glyph unicode="&#x2018;" horiz-adv-x="336" d="M66 930v542h204v-542h-204z" />
<glyph unicode="&#x2019;" horiz-adv-x="336" d="M66 930v542h204v-542h-204z" />
<glyph unicode="&#x201a;" horiz-adv-x="336" d="M66 930v542h204v-542h-204z" />
<glyph unicode="&#x201c;" horiz-adv-x="644" d="M66 930v542h204v-542h-204zM376 930v542h204v-542h-204z" />
<glyph unicode="&#x201d;" horiz-adv-x="644" d="M66 930v542h204v-542h-204zM376 930v542h204v-542h-204z" />
<glyph unicode="&#x201e;" horiz-adv-x="642" d="M26 -46l74 304h202l-74 -304h-202zM328 -46l74 304h202l-74 -304h-202z" />
<glyph unicode="&#x2022;" horiz-adv-x="704" d="M104 688q0 134 108 208q64 44 140 44q132 0 206 -108q42 -66 42 -144q0 -132 -106 -206q-64 -42 -142 -42q-130 0 -204 106q-44 64 -44 142z" />
<glyph unicode="&#x2026;" horiz-adv-x="1248" d="M72 80q0 74 66 108q28 14 56 14q74 0 106 -68q14 -26 14 -54q0 -78 -68 -110q-26 -12 -52 -12q-78 0 -110 70q-12 26 -12 52zM504 80q0 74 66 108q26 14 54 14q74 0 108 -68q14 -26 14 -54q0 -78 -70 -110q-26 -12 -52 -12q-74 0 -106 66q-14 28 -14 56zM934 80 q0 74 66 108q26 14 54 14q74 0 108 -68q14 -26 14 -54q0 -78 -70 -110q-26 -12 -52 -12q-74 0 -106 66q-14 28 -14 56z" />
<glyph unicode="&#x202f;" horiz-adv-x="367" />
<glyph unicode="&#x2039;" horiz-adv-x="676" d="M82 584l262 416h248l-262 -416l262 -426h-248z" />
<glyph unicode="&#x203a;" horiz-adv-x="676" d="M82 158l262 426l-262 416h250l262 -416l-262 -426h-250z" />
<glyph unicode="&#x205f;" horiz-adv-x="459" />
<glyph unicode="&#x20ac;" horiz-adv-x="1092" d="M100 530v104h92v120h-92v104h92v146q0 164 118 286q108 106 252 110v-220q-106 0 -142 -98q-10 -30 -10 -60v-164h406v-106h-406v-118h406v-104h-406v-138q0 -120 88 -160q30 -12 64 -12v-220q-196 8 -304 170q-60 92 -66 194v166h-92zM674 0v220q72 4 116 68 q22 34 30 76q0 2 1 9t2 16t2 19t1 18v14v6l212 -76q0 -142 -124 -262q-112 -106 -240 -108zM674 1180v220q182 -2 290 -144q74 -100 74 -226l-214 -78q0 82 -4 94q-24 106 -116 130q-18 4 -30 4z" />
<glyph unicode="&#x2122;" horiz-adv-x="840" d="M52 1320v80h274v-80h-96v-352h-82v352h-96zM372 968v296h6l74 -176v-120h-80zM372 1352v48h64l122 -294l80 182h10v-172l-64 -148h-52zM674 968v432h80v-432h-80z" />
<glyph unicode="&#x25fc;" horiz-adv-x="1110" d="M0 0v1110h1110v-1110h-1110z" />
</font>
</defs>
</svg>
